<mxfile host="app.diagrams.net" agent="Mozilla/5.0 (X11; Ubuntu; Linux x86_64; rv:141.0) Gecko/20100101 Firefox/141.0" version="28.2.7">
  <diagram name="Page-1" id="cWGV1W9D1GO7_-I9aehU">
    <mxGraphModel dx="1412" dy="781" grid="0" gridSize="10" guides="1" tooltips="1" connect="1" arrows="1" fold="1" page="1" pageScale="1" pageWidth="850" pageHeight="1100" math="0" shadow="0">
      <root>
        <mxCell id="0" />
        <mxCell id="1" parent="0" />
        <mxCell id="p1IepzGUd8G1rMpx9XE8-10" value="" style="edgeStyle=orthogonalEdgeStyle;rounded=0;orthogonalLoop=1;jettySize=auto;html=1;" edge="1" parent="1" source="p1IepzGUd8G1rMpx9XE8-1" target="p1IepzGUd8G1rMpx9XE8-2">
          <mxGeometry relative="1" as="geometry" />
        </mxCell>
        <mxCell id="p1IepzGUd8G1rMpx9XE8-1" value="&lt;div&gt;INPUT&lt;/div&gt;&lt;div&gt;&lt;br&gt;&lt;/div&gt;&lt;div&gt;POWER SUPPLY 5V&lt;/div&gt;" style="rounded=1;whiteSpace=wrap;html=1;" vertex="1" parent="1">
          <mxGeometry x="320" y="140" width="120" height="60" as="geometry" />
        </mxCell>
        <mxCell id="p1IepzGUd8G1rMpx9XE8-11" value="" style="edgeStyle=orthogonalEdgeStyle;rounded=0;orthogonalLoop=1;jettySize=auto;html=1;" edge="1" parent="1" source="p1IepzGUd8G1rMpx9XE8-2" target="p1IepzGUd8G1rMpx9XE8-5">
          <mxGeometry relative="1" as="geometry" />
        </mxCell>
        <mxCell id="p1IepzGUd8G1rMpx9XE8-12" style="edgeStyle=orthogonalEdgeStyle;rounded=0;orthogonalLoop=1;jettySize=auto;html=1;entryX=0.5;entryY=0;entryDx=0;entryDy=0;" edge="1" parent="1" source="p1IepzGUd8G1rMpx9XE8-2" target="p1IepzGUd8G1rMpx9XE8-4">
          <mxGeometry relative="1" as="geometry">
            <Array as="points">
              <mxPoint x="380" y="320" />
              <mxPoint x="250" y="320" />
            </Array>
          </mxGeometry>
        </mxCell>
        <mxCell id="p1IepzGUd8G1rMpx9XE8-13" style="edgeStyle=orthogonalEdgeStyle;rounded=0;orthogonalLoop=1;jettySize=auto;html=1;entryX=0.5;entryY=0;entryDx=0;entryDy=0;" edge="1" parent="1" source="p1IepzGUd8G1rMpx9XE8-2" target="p1IepzGUd8G1rMpx9XE8-6">
          <mxGeometry relative="1" as="geometry">
            <Array as="points">
              <mxPoint x="380" y="320" />
              <mxPoint x="510" y="320" />
            </Array>
          </mxGeometry>
        </mxCell>
        <mxCell id="p1IepzGUd8G1rMpx9XE8-14" style="edgeStyle=orthogonalEdgeStyle;rounded=0;orthogonalLoop=1;jettySize=auto;html=1;entryX=0;entryY=0.5;entryDx=0;entryDy=0;" edge="1" parent="1" source="p1IepzGUd8G1rMpx9XE8-2" target="p1IepzGUd8G1rMpx9XE8-7">
          <mxGeometry relative="1" as="geometry" />
        </mxCell>
        <mxCell id="p1IepzGUd8G1rMpx9XE8-2" value="&lt;div&gt;PROSES&lt;/div&gt;&lt;div&gt;&lt;br&gt;&lt;/div&gt;&lt;div&gt;ARDUINO UNO&lt;/div&gt;" style="rounded=1;whiteSpace=wrap;html=1;" vertex="1" parent="1">
          <mxGeometry x="320" y="240" width="120" height="60" as="geometry" />
        </mxCell>
        <mxCell id="p1IepzGUd8G1rMpx9XE8-9" value="" style="edgeStyle=orthogonalEdgeStyle;rounded=0;orthogonalLoop=1;jettySize=auto;html=1;" edge="1" parent="1" source="p1IepzGUd8G1rMpx9XE8-3" target="p1IepzGUd8G1rMpx9XE8-2">
          <mxGeometry relative="1" as="geometry" />
        </mxCell>
        <mxCell id="p1IepzGUd8G1rMpx9XE8-3" value="&lt;div&gt;INPUT&lt;/div&gt;&lt;div&gt;&lt;br&gt;&lt;/div&gt;&lt;div&gt;POTENSIOMETER&lt;/div&gt;" style="rounded=1;whiteSpace=wrap;html=1;" vertex="1" parent="1">
          <mxGeometry x="160" y="240" width="120" height="60" as="geometry" />
        </mxCell>
        <mxCell id="p1IepzGUd8G1rMpx9XE8-4" value="&lt;div&gt;OUTPUT&lt;/div&gt;&lt;div&gt;&lt;br&gt;&lt;/div&gt;&lt;div&gt;LED1&lt;/div&gt;" style="rounded=1;whiteSpace=wrap;html=1;" vertex="1" parent="1">
          <mxGeometry x="190" y="340" width="120" height="60" as="geometry" />
        </mxCell>
        <mxCell id="p1IepzGUd8G1rMpx9XE8-5" value="&lt;div&gt;OUTPUT&lt;/div&gt;&lt;div&gt;&lt;br&gt;&lt;/div&gt;&lt;div&gt;LED2&lt;/div&gt;" style="rounded=1;whiteSpace=wrap;html=1;" vertex="1" parent="1">
          <mxGeometry x="320" y="340" width="120" height="60" as="geometry" />
        </mxCell>
        <mxCell id="p1IepzGUd8G1rMpx9XE8-6" value="&lt;div&gt;OUTPUT&lt;/div&gt;&lt;div&gt;&lt;br&gt;&lt;/div&gt;&lt;div&gt;LED3&lt;/div&gt;" style="rounded=1;whiteSpace=wrap;html=1;" vertex="1" parent="1">
          <mxGeometry x="450" y="340" width="120" height="60" as="geometry" />
        </mxCell>
        <mxCell id="p1IepzGUd8G1rMpx9XE8-7" value="&lt;div&gt;OUTPUT&lt;/div&gt;&lt;div&gt;&lt;br&gt;&lt;/div&gt;&lt;div&gt;BUZZER&lt;/div&gt;" style="rounded=1;whiteSpace=wrap;html=1;" vertex="1" parent="1">
          <mxGeometry x="480" y="240" width="120" height="60" as="geometry" />
        </mxCell>
        <mxCell id="p1IepzGUd8G1rMpx9XE8-15" value="&lt;div&gt;FAHMI IBRAHIM&lt;/div&gt;&lt;div&gt;EC-3D&lt;/div&gt;&lt;div&gt;2403321073&lt;/div&gt;" style="text;html=1;whiteSpace=wrap;strokeColor=none;fillColor=none;align=center;verticalAlign=middle;rounded=0;" vertex="1" parent="1">
          <mxGeometry x="135" y="170" width="170" height="30" as="geometry" />
        </mxCell>
      </root>
    </mxGraphModel>
  </diagram>
</mxfile>
